<svg id="Layer_1" data-name="Layer 1" xmlns="http://www.w3.org/2000/svg" xmlns:xlink="http://www.w3.org/1999/xlink" viewBox="0 0 170.6 35.13" width="170.603" height="35.128"><defs><style>.cls-1{fill:#da000c;}.cls-2{fill:url(#linear-gradient);}.cls-3{fill:url(#linear-gradient-2);}.cls-4{fill:#6fc3d4;}.cls-5{fill:url(#linear-gradient-3);}.cls-6{fill:url(#linear-gradient-4);}.cls-7{fill:#c5a98b;}.cls-8{fill:url(#linear-gradient-5);}.cls-9{fill:url(#linear-gradient-6);}.cls-10{fill:#9d6a3b;}.cls-11{fill:url(#linear-gradient-7);}.cls-12{fill:url(#linear-gradient-8);}.cls-13{fill:#46962a;}.cls-14{fill:url(#linear-gradient-9);}.cls-15{fill:url(#linear-gradient-10);}.cls-16{fill:#ea7a00;}.cls-17{fill:url(#linear-gradient-11);}.cls-18{fill:url(#linear-gradient-12);}.cls-19{fill:#1c93cf;}.cls-20{fill:url(#linear-gradient-13);}.cls-21{fill:url(#linear-gradient-14);}.cls-22{fill:#1e8e83;}.cls-23{fill:url(#linear-gradient-15);}.cls-24{fill:url(#linear-gradient-16);}.cls-25{fill:#74156a;}.cls-26{fill:url(#linear-gradient-17);}.cls-27{fill:url(#linear-gradient-18);}.cls-28{fill:#003467;}</style><linearGradient id="linear-gradient" x1="-801.03" y1="510.63" x2="-800.35" y2="509.87" gradientTransform="matrix(11.88, 0, 0, -10.62, 9510.64, 5413.65)" gradientUnits="userSpaceOnUse"><stop offset="0" stop-color="#64605f"/><stop offset="1" stop-color="#fff"/></linearGradient><linearGradient id="linear-gradient-2" x1="-792.97" y1="505.3" x2="-792.28" y2="504.54" gradientTransform="matrix(10.7, 0, 0, -9.56, 8475.82, 4824.15)" gradientUnits="userSpaceOnUse"><stop offset="0" stop-color="#fff"/><stop offset="1" stop-color="#64605f"/></linearGradient><linearGradient id="linear-gradient-3" x1="-779.36" y1="503.25" x2="-778.63" y2="502.53" gradientTransform="matrix(9.18, 0, 0, -9.25, 7159.35, 4649.13)" xlink:href="#linear-gradient"/><linearGradient id="linear-gradient-4" x1="-768.97" y1="497.16" x2="-768.24" y2="496.43" gradientTransform="matrix(8.27, 0, 0, -8.33, 6365.13, 4138.79)" xlink:href="#linear-gradient-2"/><linearGradient id="linear-gradient-5" x1="-756.03" y1="495.78" x2="-755.26" y2="495.08" gradientTransform="matrix(7.37, 0, 0, -8.17, 5588.48, 4048.45)" xlink:href="#linear-gradient"/><linearGradient id="linear-gradient-6" x1="-743.11" y1="488.88" x2="-742.33" y2="488.18" gradientTransform="matrix(6.64, 0, 0, -7.37, 4952.39, 3598.17)" xlink:href="#linear-gradient-2"/><linearGradient id="linear-gradient-7" x1="-797.11" y1="511.94" x2="-796.44" y2="511.24" gradientTransform="matrix(11.27, 0, 0, -10.91, 8982.62, 5590.02)" xlink:href="#linear-gradient"/><linearGradient id="linear-gradient-8" x1="-788.66" y1="506.52" x2="-787.98" y2="505.83" gradientTransform="matrix(10.15, 0, 0, -9.78, 8005.38, 4960.44)" xlink:href="#linear-gradient-2"/><linearGradient id="linear-gradient-9" x1="-774.63" y1="504.4" x2="-773.9" y2="503.73" gradientTransform="matrix(8.73, 0, 0, -9.43, 6774.88, 4763.21)" xlink:href="#linear-gradient"/><linearGradient id="linear-gradient-10" x1="-763.69" y1="498.43" x2="-762.96" y2="497.76" gradientTransform="matrix(7.87, 0, 0, -8.5, 6017.65, 4242.44)" xlink:href="#linear-gradient-2"/><linearGradient id="linear-gradient-11" x1="-750.44" y1="496.87" x2="-749.67" y2="496.21" gradientTransform="matrix(7.03, 0, 0, -8.31, 5294.09, 4130.61)" xlink:href="#linear-gradient"/><linearGradient id="linear-gradient-12" x1="-736.87" y1="490.06" x2="-736.1" y2="489.41" gradientTransform="matrix(6.33, 0, 0, -7.48, 4686.2, 3671.57)" xlink:href="#linear-gradient-2"/><linearGradient id="linear-gradient-13" x1="-794.36" y1="514.17" x2="-793.69" y2="513.54" gradientTransform="matrix(10.87, 0, 0, -11.45, 8638.74, 5902.92)" xlink:href="#linear-gradient"/><linearGradient id="linear-gradient-14" x1="-785.27" y1="508.91" x2="-784.6" y2="508.28" gradientTransform="matrix(9.76, 0, 0, -10.24, 7664.24, 5229.73)" xlink:href="#linear-gradient-2"/><linearGradient id="linear-gradient-15" x1="-769.46" y1="506.24" x2="-768.74" y2="505.63" gradientTransform="matrix(8.29, 0, 0, -9.75, 6394.19, 4951.09)" xlink:href="#linear-gradient"/><linearGradient id="linear-gradient-16" x1="-757.97" y1="500.47" x2="-757.24" y2="499.86" gradientTransform="matrix(7.47, 0, 0, -8.79, 5675.95, 4412.42)" xlink:href="#linear-gradient-2"/><linearGradient id="linear-gradient-17" x1="-744.44" y1="498.6" x2="-743.67" y2="497.99" gradientTransform="matrix(6.69, 0, 0, -8.53, 5005.79, 4263.95)" xlink:href="#linear-gradient"/><linearGradient id="linear-gradient-18" x1="-730.22" y1="491.98" x2="-729.44" y2="491.37" gradientTransform="matrix(6.03, 0, 0, -7.68, 4427.04, 3792.39)" xlink:href="#linear-gradient-2"/></defs><title>Grupo 105 - Dark</title><path class="cls-1" d="M11.43,5.56c1.18,2.74,0,5.34-2.85,5.83A8,8,0,0,1,.46,6.73C-.88,3.61.83,1,4,.82A8.22,8.22,0,0,1,11.43,5.56Z" transform="translate(0 -0.01)"/><path class="cls-2" d="M11.43,5.56c1.18,2.74,0,5.34-2.85,5.83A8,8,0,0,1,.46,6.73C-.88,3.61.83,1,4,.82A8.22,8.22,0,0,1,11.43,5.56Z" transform="translate(0 -0.01)"/><path class="cls-1" d="M11,5.61c1.06,2.48,0,4.83-2.6,5.26a7.21,7.21,0,0,1-7.28-4.2c-1.2-2.8.31-5.18,3.19-5.32A7.39,7.39,0,0,1,11,5.61Z" transform="translate(0 -0.01)"/><path class="cls-3" d="M11,5.61c1.06,2.48,0,4.83-2.6,5.26a7.21,7.21,0,0,1-7.28-4.2c-1.2-2.8.31-5.18,3.19-5.32A7.39,7.39,0,0,1,11,5.61Z" transform="translate(0 -0.01)"/><path class="cls-4" d="M21,4.53c1,2.4.22,4.64-1.93,5s-5.2-1.44-6.35-4.13,0-5,2.41-5.06C17.41.26,20,2.13,21,4.53Z" transform="translate(0 -0.01)"/><path class="cls-5" d="M21,4.53c1,2.4.22,4.64-1.93,5s-5.2-1.44-6.35-4.13,0-5,2.41-5.06C17.41.26,20,2.13,21,4.53Z" transform="translate(0 -0.01)"/><path class="cls-4" d="M20.65,4.57c.94,2.18.19,4.2-1.76,4.52s-4.67-1.3-5.7-3.72,0-4.45,2.15-4.56S19.72,2.4,20.65,4.57Z" transform="translate(0 -0.01)"/><path class="cls-6" d="M20.65,4.57c.94,2.18.19,4.2-1.76,4.52s-4.67-1.3-5.7-3.72,0-4.45,2.15-4.56S19.72,2.4,20.65,4.57Z" transform="translate(0 -0.01)"/><path class="cls-7" d="M28.44,3.74c.91,2.14.35,4.1-1.34,4.4S23,6.8,22,4.44,21.72.09,23.61,0,27.52,1.6,28.44,3.74Z" transform="translate(0 -0.01)"/><path class="cls-8" d="M28.44,3.74c.91,2.14.35,4.1-1.34,4.4S23,6.8,22,4.44,21.72.09,23.61,0,27.52,1.6,28.44,3.74Z" transform="translate(0 -0.01)"/><path class="cls-7" d="M28.14,3.77c.83,1.94.32,3.71-1.21,4S23.21,6.52,22.3,4.4,22.09.49,23.78.4,27.31,1.84,28.14,3.77Z" transform="translate(0 -0.01)"/><path class="cls-9" d="M28.14,3.77c.83,1.94.32,3.71-1.21,4S23.21,6.52,22.3,4.4,22.09.49,23.78.4,27.31,1.84,28.14,3.77Z" transform="translate(0 -0.01)"/><path class="cls-10" d="M16.11,16.47c1.17,2.74.11,5.65-2.55,6.56-2.86,1-6.42-.71-7.76-3.84S6,13,9,12.45A6.73,6.73,0,0,1,16.11,16.47Z" transform="translate(0 -0.01)"/><path class="cls-11" d="M16.11,16.47c1.17,2.74.11,5.65-2.55,6.56-2.86,1-6.42-.71-7.76-3.84S6,13,9,12.45A6.73,6.73,0,0,1,16.11,16.47Z" transform="translate(0 -0.01)"/><path class="cls-10" d="M15.66,16.59c1.07,2.48.09,5.11-2.32,5.91a5.91,5.91,0,0,1-7-3.46c-1.2-2.8.16-5.53,2.87-6.07A6,6,0,0,1,15.66,16.59Z" transform="translate(0 -0.01)"/><path class="cls-12" d="M15.66,16.59c1.07,2.48.09,5.11-2.32,5.91a5.91,5.91,0,0,1-7-3.46c-1.2-2.8.16-5.53,2.87-6.07A6,6,0,0,1,15.66,16.59Z" transform="translate(0 -0.01)"/><path class="cls-13" d="M25.12,14.1c1,2.4.31,4.87-1.7,5.56s-4.94-.82-6.09-3.51-.13-5.25,2.14-5.68S24.09,11.7,25.12,14.1Z" transform="translate(0 -0.01)"/><path class="cls-14" d="M25.12,14.1c1,2.4.31,4.87-1.7,5.56s-4.94-.82-6.09-3.51-.13-5.25,2.14-5.68S24.09,11.7,25.12,14.1Z" transform="translate(0 -0.01)"/><path class="cls-13" d="M24.77,14.19c.94,2.17.28,4.41-1.55,5S18.8,18.45,17.76,16s-.13-4.72,1.91-5.12S23.84,12,24.77,14.19Z" transform="translate(0 -0.01)"/><path class="cls-15" d="M24.77,14.19c.94,2.17.28,4.41-1.55,5S18.8,18.45,17.76,16s-.13-4.72,1.91-5.12S23.84,12,24.77,14.19Z" transform="translate(0 -0.01)"/><path class="cls-16" d="M32.09,12.26c.91,2.14.43,4.29-1.15,4.83s-3.93-.86-5-3.22S25.67,9.29,27.45,9,31.17,10.12,32.09,12.26Z" transform="translate(0 -0.01)"/><path class="cls-17" d="M32.09,12.26c.91,2.14.43,4.29-1.15,4.83s-3.93-.86-5-3.22S25.67,9.29,27.45,9,31.17,10.12,32.09,12.26Z" transform="translate(0 -0.01)"/><path class="cls-16" d="M31.81,12.33c.83,1.94.39,3.88-1,4.36s-3.54-.79-4.45-2.91S26,9.67,27.62,9.35,31,10.39,31.81,12.33Z" transform="translate(0 -0.01)"/><path class="cls-18" d="M31.81,12.33c.83,1.94.39,3.88-1,4.36s-3.54-.79-4.45-2.91S26,9.67,27.62,9.35,31,10.39,31.81,12.33Z" transform="translate(0 -0.01)"/><path class="cls-19" d="M20.75,27.29a5.65,5.65,0,0,1-2.24,7.27A5.42,5.42,0,0,1,11.29,32a3.71,3.71,0,0,1-.19-.46,5.3,5.3,0,1,1,9.23-5.2,5.38,5.38,0,0,1,.42.95Z" transform="translate(0 -0.01)"/><path class="cls-20" d="M20.75,27.29a5.65,5.65,0,0,1-2.24,7.27A5.42,5.42,0,0,1,11.29,32a3.71,3.71,0,0,1-.19-.46,5.3,5.3,0,1,1,9.23-5.2,5.38,5.38,0,0,1,.42.95Z" transform="translate(0 -0.01)"/><path class="cls-19" d="M20.33,27.48a5.1,5.1,0,0,1-2,6.56,4.89,4.89,0,0,1-6.5-2.36c0-.12-.11-.25-.15-.38A4.77,4.77,0,0,1,20,26.75a5.36,5.36,0,0,1,.32.73Z" transform="translate(0 -0.01)"/><path class="cls-21" d="M20.33,27.48a5.1,5.1,0,0,1-2,6.56,4.89,4.89,0,0,1-6.5-2.36c0-.12-.11-.25-.15-.38A4.77,4.77,0,0,1,20,26.75a5.36,5.36,0,0,1,.32.73Z" transform="translate(0 -0.01)"/><path class="cls-22" d="M29.18,23.58c1,2.4.42,5.11-1.46,6.11s-4.67-.21-5.83-2.9-.25-5.53,1.88-6.3S28.15,21.18,29.18,23.58Z" transform="translate(0 -0.01)"/><path class="cls-23" d="M29.18,23.58c1,2.4.42,5.11-1.46,6.11s-4.67-.21-5.83-2.9-.25-5.53,1.88-6.3S28.15,21.18,29.18,23.58Z" transform="translate(0 -0.01)"/><path class="cls-22" d="M28.86,23.72c.93,2.18.37,4.62-1.34,5.51s-4.19-.21-5.23-2.62-.23-5,1.68-5.66S27.93,21.55,28.86,23.72Z" transform="translate(0 -0.01)"/><path class="cls-24" d="M28.86,23.72c.93,2.18.37,4.62-1.34,5.51s-4.19-.21-5.23-2.62-.23-5,1.68-5.66S27.93,21.55,28.86,23.72Z" transform="translate(0 -0.01)"/><path class="cls-25" d="M35.71,20.71c.91,2.13.51,4.47-1,5.26S31,25.59,30,23.22s-.41-4.79,1.26-5.39S34.79,18.57,35.71,20.71Z" transform="translate(0 -0.01)"/><path class="cls-26" d="M35.71,20.71c.91,2.13.51,4.47-1,5.26S31,25.59,30,23.22s-.41-4.79,1.26-5.39S34.79,18.57,35.71,20.71Z" transform="translate(0 -0.01)"/><path class="cls-25" d="M35.45,20.82c.83,1.93.47,4.05-.88,4.74s-3.35-.36-4.26-2.48-.38-4.3,1.12-4.85S34.62,18.88,35.45,20.82Z" transform="translate(0 -0.01)"/><path class="cls-27" d="M35.45,20.82c.83,1.93.47,4.05-.88,4.74s-3.35-.36-4.26-2.48-.38-4.3,1.12-4.85S34.62,18.88,35.45,20.82Z" transform="translate(0 -0.01)"/><path class="cls-28" d="M49.67.47h4V21.92h8.8v3.5H49.67Z" transform="translate(0 -0.01)"/><path class="cls-28" d="M65.62,13.08A12.8,12.8,0,1,1,78.4,25.9,12.8,12.8,0,0,1,65.62,13.08ZM69.57,13A9.43,9.43,0,1,0,79,3.5,9.43,9.43,0,0,0,69.57,13Z" transform="translate(0 -0.01)"/><path class="cls-28" d="M98.67.47h7c3.91,0,5.94.54,7.25,1.45a8,8,0,0,1,3.3,6.75,8.38,8.38,0,0,1-1.42,4.75A6.76,6.76,0,0,1,110,16.15l5.87,9.27h-4.21l-6.85-11.26h.88c1.72,0,3.81-.06,5-1.08A5.29,5.29,0,0,0,112.42,9a5.1,5.1,0,0,0-2.13-4.21A7.88,7.88,0,0,0,106.05,4h-3.41V25.42h-4Z" transform="translate(0 -0.01)"/><path class="cls-28" d="M122.7.47h14V4h-10v7.08h9.85v3.47h-9.85v7.38h10v3.51h-14Z" transform="translate(0 -0.01)"/><path class="cls-28" d="M144.18,25.42V.47h5.46l7.76,19.32L165.05.47h5.43v25H166.8l.1-21-8.26,21H156l-8.26-21,.1,21Z" transform="translate(0 -0.01)"/><path class="cls-28" d="M49.55,29.11h.94V35h-.94Z" transform="translate(0 -0.01)"/><path class="cls-28" d="M58.06,29.11a2.42,2.42,0,0,1,1.66.4A1.86,1.86,0,0,1,60.38,31a2,2,0,0,1-.62,1.45,2.32,2.32,0,0,1-1.61.44h-.83V35h-.94v-5.9ZM57.32,32h.82a1.71,1.71,0,0,0,.91-.2,1.06,1.06,0,0,0,.22-1.48,1.15,1.15,0,0,0-.23-.21,1.69,1.69,0,0,0-.94-.2h-.78Z" transform="translate(0 -0.01)"/><path class="cls-28" d="M66.46,33.27a1,1,0,0,0,1,1.06h0a1,1,0,0,0,1-.94c0-.66-.55-.81-1.31-1.09-.47-.15-1.49-.49-1.49-1.6A1.72,1.72,0,0,1,67.4,29h.09a1.68,1.68,0,0,1,1.78,1.57v.06h-.92a.87.87,0,0,0-.89-.83.85.85,0,0,0-.89.8v0c0,.57.44.72,1.39,1.07.73.31,1.42.69,1.42,1.64a1.76,1.76,0,0,1-1.7,1.8h-.21a1.78,1.78,0,0,1-1.93-1.62,1.93,1.93,0,0,1,0-.24Z" transform="translate(0 -0.01)"/><path class="cls-28" d="M75.91,29.11V32.8a1.76,1.76,0,0,0,.21,1,1.08,1.08,0,0,0,.91.47,1,1,0,0,0,.9-.46,1.71,1.71,0,0,0,.22-1V29.11h.93V32.8a2.12,2.12,0,0,1-.64,1.81,2,2,0,0,1-1.4.52A2,2,0,0,1,75,33.2a1.79,1.79,0,0,1,0-.4V29.11Z" transform="translate(0 -0.01)"/><path class="cls-28" d="M85,35V29.11h1.29l1.83,4.57,1.81-4.57h1.29V35h-.87l0-5-2,5H87.8l-2-5,0,5Z" transform="translate(0 -0.01)"/><path class="cls-28" d="M104.92,33.27a1,1,0,0,0,1,1.06h0a1,1,0,0,0,1-.94c0-.66-.56-.81-1.31-1.09-.47-.15-1.5-.49-1.5-1.6a1.74,1.74,0,0,1,1.77-1.7H106a1.68,1.68,0,0,1,1.78,1.57v.06h-.92a.87.87,0,0,0-.89-.83.84.84,0,0,0-.89.8v0c0,.57.44.72,1.39,1.07.73.31,1.42.69,1.42,1.64a1.76,1.76,0,0,1-1.7,1.8h-.21A1.78,1.78,0,0,1,104,33.51a1.93,1.93,0,0,1,0-.24Z" transform="translate(0 -0.01)"/><path class="cls-28" d="M113.44,29.11h.94V35h-.94Z" transform="translate(0 -0.01)"/><path class="cls-28" d="M121.16,29.94H119.8v-.83h3.66v.83H122.1V35h-.94Z" transform="translate(0 -0.01)"/><path class="cls-28" d="M136.18,35h-1l2.43-5.91h.85L140.82,35h-1l-.56-1.41h-2.52Zm1.8-4.81-1,2.65h2Z" transform="translate(0 -0.01)"/><path class="cls-28" d="M146.24,35V29.11h1.29l1.84,4.57,1.81-4.57h1.28V35h-.87l0-5-2,5h-.61l-2-5,0,5Z" transform="translate(0 -0.01)"/><path class="cls-28" d="M158.39,29.11h3.3v.83h-2.36v1.68h2.32v.82h-2.32v1.74h2.35V35h-3.29Z" transform="translate(0 -0.01)"/><path class="cls-28" d="M168.31,29.94H167v-.83h3.65v.83h-1.35V35h-.94Z" transform="translate(0 -0.01)"/></svg>